<?xml version="1.0" standalone="no"?>
<!DOCTYPE svg PUBLIC "-//W3C//DTD SVG 20010904//EN"
 "http://www.w3.org/TR/2001/REC-SVG-20010904/DTD/svg10.dtd">
<svg version="1.0" xmlns="http://www.w3.org/2000/svg"
 width="1000.000000pt" height="1000.000000pt" viewBox="0 0 1000.000000 1000.000000"
 preserveAspectRatio="xMidYMid meet">
<metadata>
Created by potrace 1.11, written by Peter Selinger 2001-2013
</metadata>
<g transform="translate(0.000000,1000.000000) scale(0.100000,-0.100000)"
fill="#000000" stroke="none">
<path d="M600 7713 l0 -1688 1685 1685 c927 927 1685 1686 1685 1687 0 2 -758
3 -1685 3 l-1685 0 0 -1687z"/>
<path d="M2712 7287 l-2112 -2112 0 -2288 0 -2287 2288 0 2287 0 2114 2114
2114 2114 -6 1419 c-4 780 -7 1808 -7 2286 l0 867 -2283 0 -2282 0 -2113
-2113z"/>
<path d="M7710 2285 l-1685 -1685 1688 0 1687 0 0 1685 c0 927 -1 1685 -3
1685 -1 0 -760 -758 -1687 -1685z"/>
</g>
</svg>
